<?xml version="1.0" standalone="no"?>
<!DOCTYPE svg PUBLIC "-//W3C//DTD SVG 20010904//EN"
 "http://www.w3.org/TR/2001/REC-SVG-20010904/DTD/svg10.dtd">
<svg version="1.0" xmlns="http://www.w3.org/2000/svg"
 width="512.000000pt" height="512.000000pt" viewBox="0 0 512.000000 512.000000"
 preserveAspectRatio="xMidYMid meet">
<metadata>
Created by potrace 1.11, written by Peter Selinger 2001-2013
</metadata>
<g transform="translate(0.000000,512.000000) scale(0.100000,-0.100000)"
fill="#000000" stroke="none">
<path d="M2487 5004 c-1 -1 -49 -5 -106 -8 -57 -4 -107 -8 -110 -10 -3 -2 -31
-7 -61 -10 -30 -4 -98 -16 -150 -27 -52 -11 -105 -22 -116 -25 -12 -2 -77 -22
-145 -45 -936 -309 -1586 -1117 -1675 -2079 -8 -92 -8 -328 0 -401 4 -30 9
-76 12 -103 3 -27 8 -58 10 -70 2 -12 6 -35 9 -53 8 -64 46 -211 82 -319 l36
-111 -41 -59 c-23 -32 -40 -60 -38 -62 2 -2 17 9 32 24 41 37 131 106 183 139
102 64 286 143 374 160 10 2 26 6 35 9 20 6 59 13 157 25 68 9 376 7 392 -2 4
-3 31 -7 58 -11 57 -7 92 -13 155 -27 25 -6 55 -13 67 -15 12 -2 77 -20 144
-40 216 -62 457 -157 814 -319 236 -107 344 -149 476 -184 237 -63 437 -62
567 3 l44 22 -44 14 c-96 31 -180 70 -583 270 -231 115 -490 238 -575 274
-245 102 -555 201 -696 221 -22 4 -46 8 -54 10 -8 3 -35 7 -60 10 -25 4 -74
10 -110 14 -69 9 -365 7 -415 -4 -16 -3 -57 -10 -90 -16 -139 -23 -367 -112
-470 -182 l-39 -27 -12 30 c-14 33 -60 215 -68 270 -27 179 -25 417 5 600 26
154 92 390 144 515 71 168 198 384 313 529 54 69 250 271 322 331 113 96 272
199 428 278 101 51 252 117 282 122 3 1 43 13 90 28 92 30 291 73 380 82 30 4
69 8 85 11 47 6 385 7 430 1 22 -4 65 -9 95 -12 366 -41 776 -205 1095 -439
213 -155 417 -371 560 -591 67 -103 153 -263 185 -342 14 -35 28 -63 32 -63 4
0 1 15 -7 33 -8 17 -26 64 -41 102 -42 109 -147 310 -220 420 -239 360 -566
651 -944 839 -41 21 -83 42 -93 48 -10 5 -64 27 -120 49 -171 67 -371 120
-542 144 -22 3 -51 8 -65 10 -52 10 -395 25 -403 19z"/>
<path d="M4651 2869 c-17 -7 -21 -14 -15 -27 4 -9 9 -71 11 -138 3 -138 -15
-225 -70 -329 -86 -162 -286 -275 -537 -302 -122 -14 -434 -7 -526 11 -12 2
-45 7 -75 11 -64 8 -237 41 -294 56 -22 6 -51 13 -65 16 -22 4 -178 44 -227
59 -43 12 105 -53 252 -111 275 -108 545 -191 750 -230 55 -11 169 -19 265
-19 226 0 393 34 557 115 184 91 295 231 319 404 11 72 5 187 -11 243 -18 60
-68 144 -106 179 -62 56 -168 85 -228 62z"/>
<path d="M1868 2345 c-2 -1 -30 -5 -63 -8 -57 -6 -171 -35 -163 -42 1 -1 25
-6 52 -9 171 -23 396 -79 615 -151 223 -75 283 -101 686 -305 193 -97 395
-196 450 -219 55 -23 109 -46 120 -51 43 -20 179 -61 282 -87 128 -31 294 -39
374 -18 140 37 258 135 324 269 21 42 36 78 33 81 -2 2 -31 0 -64 -5 -182 -29
-452 -27 -624 5 -14 2 -43 7 -65 10 -140 20 -338 81 -745 230 -459 168 -699
241 -925 279 -79 13 -279 28 -287 21z"/>
<path d="M4923 1931 c-28 -21 -77 -51 -107 -67 -45 -23 -58 -36 -67 -64 -39
-119 -157 -295 -248 -368 -63 -51 -179 -108 -256 -127 -72 -18 -221 -24 -285
-11 -98 19 -105 19 -167 -12 -78 -40 -190 -79 -250 -88 -27 -3 -57 -8 -68 -11
-26 -5 -183 -4 -215 1 -14 3 -42 7 -62 10 -174 26 -320 78 -952 340 -573 237
-805 299 -1101 291 -211 -5 -374 -44 -550 -132 -88 -44 -247 -150 -242 -162 2
-3 8 -17 14 -31 16 -37 108 -220 128 -255 l18 -31 83 44 c46 23 124 58 174 76
l90 34 34 -49 35 -48 -57 -21 c-59 -22 -232 -110 -266 -135 -18 -13 -17 -15 5
-47 80 -115 256 -305 349 -378 25 -19 54 -43 65 -53 36 -34 238 -164 325 -210
152 -81 439 -192 544 -211 15 -3 42 -10 59 -15 39 -13 223 -48 297 -57 30 -3
63 -8 73 -10 36 -6 225 -17 307 -17 242 0 456 28 682 87 688 181 1242 648
1521 1283 58 131 155 447 145 473 -2 4 -26 -9 -55 -29z"/>
</g>
</svg>
